<svg width="15" height="16" viewBox="0 0 15 16" fill="none" xmlns="http://www.w3.org/2000/svg">
<path d="M7.5 1.90605C4.13994 1.90605 1.40625 4.63974 1.40625 7.9998C1.40625 11.3599 4.13994 14.0935 7.5 14.0935C10.8601 14.0935 13.5937 11.3599 13.5937 7.9998C13.5937 4.63974 10.8601 1.90605 7.5 1.90605ZM10.6714 5.95752L6.73389 10.645C6.69069 10.6965 6.63695 10.738 6.57629 10.7669C6.51564 10.7957 6.44949 10.8112 6.38232 10.8123H6.37441C6.30871 10.8123 6.24375 10.7984 6.18374 10.7717C6.12373 10.7449 6.07001 10.7059 6.02607 10.657L4.33857 8.78203C4.29572 8.73657 4.26238 8.68301 4.24052 8.62449C4.21866 8.56596 4.20872 8.50366 4.21128 8.44124C4.21384 8.37882 4.22886 8.31754 4.25544 8.26101C4.28202 8.20447 4.31964 8.15382 4.36608 8.11203C4.41251 8.07024 4.46684 8.03816 4.52585 8.01766C4.58487 7.99716 4.64738 7.98867 4.70973 7.99268C4.77207 7.99669 4.83298 8.01312 4.88889 8.04101C4.94479 8.0689 4.99455 8.10768 5.03525 8.15507L6.36211 9.62929L9.95361 5.35459C10.0342 5.26145 10.1482 5.20375 10.2709 5.19397C10.3937 5.18418 10.5153 5.2231 10.6096 5.30231C10.7039 5.38152 10.7633 5.49465 10.7748 5.61726C10.7864 5.73986 10.7492 5.86209 10.6714 5.95752Z" fill="#01B574"/>
</svg>
